<svg xmlns="http://www.w3.org/2000/svg" width="30.585" height="26.863" viewBox="0 0 30.585 26.863">
  <path id="Trazado_127" data-name="Trazado 127" d="M0,7.343V5.911A.819.819,0,0,0,.044,5.8,2.683,2.683,0,0,1,2.876,3.583H9.018c0-.285,0-.541,0-.8A2.686,2.686,0,0,1,11.8,0Q15.282,0,18.761,0a2.685,2.685,0,0,1,2.8,2.8c0,.254,0,.509,0,.779h.366c1.991,0,3.981-.008,5.972,0A2.663,2.663,0,0,1,30.57,6.175a14.5,14.5,0,0,1-.6,4.595,7.49,7.49,0,0,1-3.118,4.3,7.4,7.4,0,0,1-4.016,1.045c-1.234.012-2.468,0-3.7,0-.085,0-.17-.011-.267-.018,0-.634.011-1.241,0-1.847a2.588,2.588,0,0,0-2.214-2.545,19.113,19.113,0,0,0-2.62-.031,1.842,1.842,0,0,0-.713.2,2.616,2.616,0,0,0-1.611,2.444c-.019.593,0,1.186,0,1.832-1.708-.034-3.385.02-5.044-.124A6.485,6.485,0,0,1,1.724,13.1,9.453,9.453,0,0,1,.24,9.2C.139,8.585.079,7.962,0,7.343M19.766,3.578c0-.3.009-.608,0-.911a.879.879,0,0,0-.881-.872q-3.595-.01-7.189,0a.817.817,0,0,0-.84.668,7.424,7.424,0,0,0-.012,1.115ZM30.585,25.66c-.016-3.829-.008-7.658-.008-11.487v-.332c-.389.481-.73.956-1.124,1.382a7.748,7.748,0,0,1-5.386,2.555c-1.587.1-3.181.091-4.772.13-.128,0-.256,0-.4,0-.038.227-.06.442-.111.65a2.637,2.637,0,0,1-2.354,2.016,16.1,16.1,0,0,1-2.3,0,2.663,2.663,0,0,1-2.424-2.431c-.007-.068-.011-.136-.019-.234-.125,0-.242,0-.359,0-1.532-.018-3.069.043-4.593-.074A8.342,8.342,0,0,1,.186,14.007,2.451,2.451,0,0,0,0,13.79V26.206a1.377,1.377,0,0,0,.657.657H29.92a1.151,1.151,0,0,0,.665-1.2M13.5,17.848a.9.9,0,0,0,.951.954q.835.007,1.669,0a.9.9,0,0,0,.961-.975q0-1.713,0-3.427a.9.9,0,0,0-.966-.969q-.82-.005-1.64,0a.905.905,0,0,0-.976.99c0,.566,0,1.132,0,1.7s0,1.152,0,1.728" transform="translate(0 0)" fill="#fff"/>
</svg>
