<svg version="1.1" id="Capa_1" xmlns="http://www.w3.org/2000/svg" xmlns:xlink="http://www.w3.org/1999/xlink" x="0px" y="0px"
	 viewBox="0 0 17 17" style="enable-background:new 0 0 17 17;" xml:space="preserve">
<path d="M0.1,15.8c0-4.9,0-9.8,0-14.7c0.1-0.3,0.2-0.5,0.4-0.7c0.2-0.1,0.4-0.2,0.6-0.3c4.9,0,9.8,0,14.7,0c0.3,0.1,0.6,0.2,0.8,0.5
	c0.1,0.2,0.1,0.3,0.2,0.5c0,4.9,0,9.8,0,14.7c-0.1,0.3-0.2,0.6-0.5,0.8c-0.2,0.1-0.3,0.1-0.5,0.2c-4.9,0-9.8,0-14.7,0
	c-0.3-0.1-0.6-0.2-0.8-0.5C0.3,16.2,0.2,16,0.1,15.8z M11.2,6.9c0-0.3,0-0.5,0-0.7c0-0.7-0.3-1.3-0.8-1.7C9.4,3.7,8.4,3.6,7.4,4
	c-1,0.4-1.6,1.1-1.6,2.2c0,0.4,0,0.9,0,1.3c0,0.2,0,0.2-0.2,0.3c-0.1,0-0.2,0-0.2,0C5.2,7.7,5.1,7.7,5,7.6c-0.2-0.1-0.4,0-0.5,0.2
	C4.5,8,4.5,8.1,4.7,8.2C4.8,8.3,4.9,8.3,5,8.3c0.1,0,0.2,0.1,0.3,0.1c0.4,0.2,0.5,0.4,0.3,0.8c-0.4,0.9-1.1,1.5-2.1,1.7
	c-0.1,0-0.2,0.1-0.1,0.2c0.1,0.1,0.2,0.2,0.3,0.2c0.3,0.1,0.5,0.2,0.8,0.2c0.2,0,0.3,0.1,0.3,0.3c0.1,0.4,0,0.4,0.5,0.3
	c0.6-0.1,1.1,0,1.6,0.3c0.1,0.1,0.3,0.2,0.5,0.3c0.7,0.4,1.4,0.4,2.1,0c0.2-0.1,0.3-0.2,0.5-0.3c0.4-0.3,0.8-0.4,1.3-0.3
	c0.2,0,0.3,0,0.5,0.1c0.1,0,0.2,0,0.2-0.2c0-0.1,0-0.2,0.1-0.3c0-0.1,0.1-0.2,0.2-0.2c0.3-0.1,0.6-0.1,0.8-0.2
	c0.1,0,0.2-0.1,0.3-0.2c0.1-0.1,0.1-0.2-0.1-0.2c-1.1-0.2-1.7-0.9-2.1-1.9c-0.1-0.3,0-0.5,0.2-0.6c0.1-0.1,0.3-0.1,0.5-0.2
	c0.1-0.1,0.3-0.1,0.4-0.2c0.2-0.1,0.1-0.3,0-0.4c-0.2-0.1-0.3-0.1-0.5,0c-0.2,0.1-0.4,0.2-0.6,0.1c-0.1,0-0.1-0.1-0.1-0.2
	C11.2,7.3,11.2,7.1,11.2,6.9z"/>
</svg>
