<svg xmlns="http://www.w3.org/2000/svg" width="36" height="36" viewBox="0 0 36 36" fill="currentColor">
  <path d="M1.887,35A1.893,1.893,0,0,1,0,33.113V1.887A1.893,1.893,0,0,1,1.887,0H33.113A1.893,1.893,0,0,1,35,1.887V33.113A1.893,1.893,0,0,1,33.113,35Zm17.274-8.248a3.429,3.429,0,0,0,.655,1.961,3.307,3.307,0,0,0,2.174,1.335.548.548,0,0,1,.115.048h.84c.216-.059.436-.106.649-.178a3.33,3.33,0,0,0,1.915-4.674c-.027-.054-.052-.109-.09-.19.148-.094.293-.184.437-.278a10.811,10.811,0,0,0,4.326-5.186,9.848,9.848,0,0,0-.76-9.052,11.366,11.366,0,0,0-7.691-5.345,11.909,11.909,0,0,0-8.033,1,10.857,10.857,0,0,0-6.035,7.55,8.674,8.674,0,0,0-.21,2.575,4.9,4.9,0,0,1-.347,2.413,2.016,2.016,0,0,1-1.76,1.256,1.987,1.987,0,0,1-.261.026.979.979,0,0,0-1.029.642v.681c.067.269.118.544.2.806A4.385,4.385,0,0,0,6.2,24.473,10.685,10.685,0,0,0,9,25.677l.241.073c-.038.2-.085.392-.108.588a3.321,3.321,0,0,0,2.779,3.711.536.536,0,0,1,.116.048h.84c.216-.059.436-.106.648-.178a3.356,3.356,0,0,0,2.286-3.055c0-.059.007-.119.011-.193Zm.292-1.707q-2.018-.036-4.036-.106a.385.385,0,0,1-.246-.154,3.319,3.319,0,0,0-4.839-.632.341.341,0,0,1-.253.067,8.763,8.763,0,0,1-3.193-1.328,2.631,2.631,0,0,1-.979-1.2,11.184,11.184,0,0,0,1.454-.706,3.966,3.966,0,0,0,1.667-2.912A16.359,16.359,0,0,0,9.1,15.908a8.078,8.078,0,0,1,.513-2.95,9.485,9.485,0,0,1,7.207-6.076A10.219,10.219,0,0,1,26.257,9.3a8.449,8.449,0,0,1,2.961,6.992,8.542,8.542,0,0,1-3.072,6.156,17.491,17.491,0,0,1-1.815,1.28.4.4,0,0,1-.329.012,3.3,3.3,0,0,0-4.257,1.144.419.419,0,0,1-.288.16Zm-4.715-8.337a.831.831,0,0,0-.572,1.03,5.139,5.139,0,0,0,5,3.978c.217-.02.435-.037.652-.06a5.108,5.108,0,0,0,4.366-3.96.844.844,0,0,0-.756-1.022.824.824,0,0,0-.868.615,4.528,4.528,0,0,1-.684,1.43,3.5,3.5,0,0,1-5,.445,4,4,0,0,1-1.114-1.889.809.809,0,0,0-.78-.6A.859.859,0,0,0,14.738,16.708Zm7.81-4.234a.83.83,0,0,0-.832.829.84.84,0,1,0,.835-.829ZM15,13.282a.839.839,0,1,0,.852-.807h-.019A.828.828,0,0,0,15,13.282Z" transform="translate(0.5 0.5)" stroke="rgba(0,0,0,0)" stroke-miterlimit="10" stroke-width="1"/>
</svg>
